<svg width="120" height="25" viewBox="0 0 120 25" fill="none" xmlns="http://www.w3.org/2000/svg">
<path d="M22 10.17C21.9368 9.98711 21.822 9.82645 21.6693 9.70753C21.5167 9.5886 21.3328 9.51652 21.14 9.50002L15.45 8.67002L12.9 3.50002C12.8181 3.33095 12.6902 3.18837 12.5311 3.0886C12.3719 2.98883 12.1878 2.93591 12 2.93591C11.8121 2.93591 11.6281 2.98883 11.4689 3.0886C11.3097 3.18837 11.1819 3.33095 11.1 3.50002L8.54998 8.66002L2.85998 9.50002C2.6749 9.52633 2.5009 9.60399 2.35773 9.72418C2.21455 9.84438 2.10794 10.0023 2.04998 10.18C1.99692 10.3537 1.99216 10.5385 2.03621 10.7147C2.08025 10.8909 2.17144 11.0517 2.29998 11.18L6.42998 15.18L5.42998 20.86C5.39428 21.0475 5.41297 21.2413 5.48385 21.4185C5.55473 21.5957 5.67483 21.7489 5.82998 21.86C5.98119 21.9681 6.15955 22.0319 6.34502 22.0443C6.5305 22.0567 6.71575 22.0171 6.87998 21.93L12 19.26L17.1 21.94C17.2403 22.0192 17.3988 22.0606 17.56 22.06C17.7718 22.0608 17.9784 21.9942 18.15 21.87C18.3051 21.7589 18.4252 21.6057 18.4961 21.4285C18.567 21.2513 18.5857 21.0575 18.55 20.87L17.55 15.19L21.68 11.19C21.8244 11.0677 21.9311 10.9069 21.9877 10.7264C22.0444 10.5458 22.0486 10.3529 22 10.17ZM15.85 14.17C15.7327 14.2835 15.645 14.4239 15.5944 14.579C15.5439 14.7341 15.532 14.8993 15.56 15.06L16.28 19.25L12.52 17.25C12.3753 17.173 12.2139 17.1327 12.05 17.1327C11.8861 17.1327 11.7247 17.173 11.58 17.25L7.81998 19.25L8.53998 15.06C8.56791 14.8993 8.55609 14.7341 8.50554 14.579C8.45499 14.4239 8.36725 14.2835 8.24998 14.17L5.24998 11.17L9.45998 10.56C9.62198 10.5375 9.77597 10.4756 9.90848 10.3797C10.041 10.2838 10.1479 10.1569 10.22 10.01L12 6.20002L13.88 10.02C13.952 10.1669 14.059 10.2938 14.1915 10.3897C14.324 10.4856 14.478 10.5475 14.64 10.57L18.85 11.18L15.85 14.17Z" fill="#1E8449"/>
<path d="M9.75 9.5L3.75 11L7.5 14.75L6.75 20.75L12 18.5L17.25 20.75L16.5 14.75L20.25 11L15 9.5L12 5L9.75 9.5Z" fill="#1E8449"/>
<path d="M46 10.17C45.9368 9.98711 45.822 9.82645 45.6693 9.70753C45.5167 9.5886 45.3328 9.51652 45.14 9.50002L39.45 8.67002L36.9 3.50002C36.8181 3.33095 36.6902 3.18837 36.5311 3.0886C36.3719 2.98883 36.1878 2.93591 36 2.93591C35.8121 2.93591 35.6281 2.98883 35.4689 3.0886C35.3097 3.18837 35.1819 3.33095 35.1 3.50002L32.55 8.66002L26.86 9.50002C26.6749 9.52633 26.5009 9.60399 26.3577 9.72418C26.2146 9.84438 26.1079 10.0023 26.05 10.18C25.9969 10.3537 25.9922 10.5385 26.0362 10.7147C26.0802 10.8909 26.1714 11.0517 26.3 11.18L30.43 15.18L29.43 20.86C29.3943 21.0475 29.413 21.2413 29.4838 21.4185C29.5547 21.5957 29.6748 21.7489 29.83 21.86C29.9812 21.9681 30.1596 22.0319 30.345 22.0443C30.5305 22.0567 30.7157 22.0171 30.88 21.93L36 19.26L41.1 21.94C41.2403 22.0192 41.3988 22.0606 41.56 22.06C41.7718 22.0608 41.9784 21.9942 42.15 21.87C42.3051 21.7589 42.4252 21.6057 42.4961 21.4285C42.567 21.2513 42.5857 21.0575 42.55 20.87L41.55 15.19L45.68 11.19C45.8244 11.0677 45.9311 10.9069 45.9877 10.7264C46.0444 10.5458 46.0486 10.3529 46 10.17ZM39.85 14.17C39.7327 14.2835 39.645 14.4239 39.5944 14.579C39.5439 14.7341 39.532 14.8993 39.56 15.06L40.28 19.25L36.52 17.25C36.3753 17.173 36.2139 17.1327 36.05 17.1327C35.8861 17.1327 35.7247 17.173 35.58 17.25L31.82 19.25L32.54 15.06C32.5679 14.8993 32.5561 14.7341 32.5055 14.579C32.455 14.4239 32.3673 14.2835 32.25 14.17L29.25 11.17L33.46 10.56C33.622 10.5375 33.776 10.4756 33.9085 10.3797C34.041 10.2838 34.1479 10.1569 34.22 10.01L36 6.20002L37.88 10.02C37.952 10.1669 38.059 10.2938 38.1915 10.3897C38.324 10.4856 38.478 10.5475 38.64 10.57L42.85 11.18L39.85 14.17Z" fill="#1E8449"/>
<path d="M33.75 9.5L27.75 11L31.5 14.75L30.75 20.75L36 18.5L41.25 20.75L40.5 14.75L44.25 11L39 9.5L36 5L33.75 9.5Z" fill="#1E8449"/>
<path d="M70 10.17C69.9368 9.98711 69.822 9.82645 69.6693 9.70753C69.5167 9.5886 69.3328 9.51652 69.14 9.50002L63.45 8.67002L60.9 3.50002C60.8181 3.33095 60.6902 3.18837 60.5311 3.0886C60.3719 2.98883 60.1878 2.93591 60 2.93591C59.8121 2.93591 59.6281 2.98883 59.4689 3.0886C59.3097 3.18837 59.1819 3.33095 59.1 3.50002L56.55 8.66002L50.86 9.50002C50.6749 9.52633 50.5009 9.60399 50.3577 9.72418C50.2146 9.84438 50.1079 10.0023 50.05 10.18C49.9969 10.3537 49.9922 10.5385 50.0362 10.7147C50.0802 10.8909 50.1714 11.0517 50.3 11.18L54.43 15.18L53.43 20.86C53.3943 21.0475 53.413 21.2413 53.4838 21.4185C53.5547 21.5957 53.6748 21.7489 53.83 21.86C53.9812 21.9681 54.1596 22.0319 54.345 22.0443C54.5305 22.0567 54.7157 22.0171 54.88 21.93L60 19.26L65.1 21.94C65.2403 22.0192 65.3988 22.0606 65.56 22.06C65.7718 22.0608 65.9784 21.9942 66.15 21.87C66.3051 21.7589 66.4252 21.6057 66.4961 21.4285C66.567 21.2513 66.5857 21.0575 66.55 20.87L65.55 15.19L69.68 11.19C69.8244 11.0677 69.9311 10.9069 69.9877 10.7264C70.0444 10.5458 70.0486 10.3529 70 10.17ZM63.85 14.17C63.7327 14.2835 63.645 14.4239 63.5944 14.579C63.5439 14.7341 63.532 14.8993 63.56 15.06L64.28 19.25L60.52 17.25C60.3753 17.173 60.2139 17.1327 60.05 17.1327C59.8861 17.1327 59.7247 17.173 59.58 17.25L55.82 19.25L56.54 15.06C56.5679 14.8993 56.5561 14.7341 56.5055 14.579C56.455 14.4239 56.3673 14.2835 56.25 14.17L53.25 11.17L57.46 10.56C57.622 10.5375 57.776 10.4756 57.9085 10.3797C58.041 10.2838 58.1479 10.1569 58.22 10.01L60 6.20002L61.88 10.02C61.952 10.1669 62.059 10.2938 62.1915 10.3897C62.324 10.4856 62.478 10.5475 62.64 10.57L66.85 11.18L63.85 14.17Z" fill="#1E8449"/>
<path d="M57.75 9.5L51.75 11L55.5 14.75L54.75 20.75L60 18.5L65.25 20.75L64.5 14.75L68.25 11L63 9.5L60 5L57.75 9.5Z" fill="#1E8449"/>
<path d="M94 10.17C93.9368 9.98711 93.822 9.82645 93.6693 9.70753C93.5167 9.5886 93.3328 9.51652 93.14 9.50002L87.45 8.67002L84.9 3.50002C84.8181 3.33095 84.6902 3.18837 84.5311 3.0886C84.3719 2.98883 84.1878 2.93591 84 2.93591C83.8121 2.93591 83.6281 2.98883 83.4689 3.0886C83.3097 3.18837 83.1819 3.33095 83.1 3.50002L80.55 8.66002L74.86 9.50002C74.6749 9.52633 74.5009 9.60399 74.3577 9.72418C74.2146 9.84438 74.1079 10.0023 74.05 10.18C73.9969 10.3537 73.9922 10.5385 74.0362 10.7147C74.0802 10.8909 74.1714 11.0517 74.3 11.18L78.43 15.18L77.43 20.86C77.3943 21.0475 77.413 21.2413 77.4838 21.4185C77.5547 21.5957 77.6748 21.7489 77.83 21.86C77.9812 21.9681 78.1596 22.0319 78.345 22.0443C78.5305 22.0567 78.7157 22.0171 78.88 21.93L84 19.26L89.1 21.94C89.2403 22.0192 89.3988 22.0606 89.56 22.06C89.7718 22.0608 89.9784 21.9942 90.15 21.87C90.3051 21.7589 90.4252 21.6057 90.4961 21.4285C90.567 21.2513 90.5857 21.0575 90.55 20.87L89.55 15.19L93.68 11.19C93.8244 11.0677 93.9311 10.9069 93.9877 10.7264C94.0444 10.5458 94.0486 10.3529 94 10.17ZM87.85 14.17C87.7327 14.2835 87.645 14.4239 87.5944 14.579C87.5439 14.7341 87.532 14.8993 87.56 15.06L88.28 19.25L84.52 17.25C84.3753 17.173 84.2139 17.1327 84.05 17.1327C83.8861 17.1327 83.7247 17.173 83.58 17.25L79.82 19.25L80.54 15.06C80.5679 14.8993 80.5561 14.7341 80.5055 14.579C80.455 14.4239 80.3673 14.2835 80.25 14.17L77.25 11.17L81.46 10.56C81.622 10.5375 81.776 10.4756 81.9085 10.3797C82.041 10.2838 82.1479 10.1569 82.22 10.01L84 6.20002L85.88 10.02C85.952 10.1669 86.059 10.2938 86.1915 10.3897C86.324 10.4856 86.478 10.5475 86.64 10.57L90.85 11.18L87.85 14.17Z" fill="#1E8449"/>
<path d="M81.75 9.5L75.75 11L79.5 14.75L78.75 20.75L84 18.5L89.25 20.75L88.5 14.75L92.25 11L87 9.5L84 5L81.75 9.5Z" fill="#1E8449"/>
<path d="M118 10.17C117.937 9.98711 117.822 9.82645 117.669 9.70753C117.517 9.5886 117.333 9.51652 117.14 9.50002L111.45 8.67002L108.9 3.50002C108.818 3.33095 108.69 3.18837 108.531 3.0886C108.372 2.98883 108.188 2.93591 108 2.93591C107.812 2.93591 107.628 2.98883 107.469 3.0886C107.31 3.18837 107.182 3.33095 107.1 3.50002L104.55 8.66002L98.86 9.50002C98.6749 9.52633 98.5009 9.60399 98.3577 9.72418C98.2146 9.84438 98.1079 10.0023 98.05 10.18C97.9969 10.3537 97.9922 10.5385 98.0362 10.7147C98.0802 10.8909 98.1714 11.0517 98.3 11.18L102.43 15.18L101.43 20.86C101.394 21.0475 101.413 21.2413 101.484 21.4185C101.555 21.5957 101.675 21.7489 101.83 21.86C101.981 21.9681 102.16 22.0319 102.345 22.0443C102.53 22.0567 102.716 22.0171 102.88 21.93L108 19.26L113.1 21.94C113.24 22.0192 113.399 22.0606 113.56 22.06C113.772 22.0608 113.978 21.9942 114.15 21.87C114.305 21.7589 114.425 21.6057 114.496 21.4285C114.567 21.2513 114.586 21.0575 114.55 20.87L113.55 15.19L117.68 11.19C117.824 11.0677 117.931 10.9069 117.988 10.7264C118.044 10.5458 118.049 10.3529 118 10.17ZM111.85 14.17C111.733 14.2835 111.645 14.4239 111.594 14.579C111.544 14.7341 111.532 14.8993 111.56 15.06L112.28 19.25L108.52 17.25C108.375 17.173 108.214 17.1327 108.05 17.1327C107.886 17.1327 107.725 17.173 107.58 17.25L103.82 19.25L104.54 15.06C104.568 14.8993 104.556 14.7341 104.506 14.579C104.455 14.4239 104.367 14.2835 104.25 14.17L101.25 11.17L105.46 10.56C105.622 10.5375 105.776 10.4756 105.908 10.3797C106.041 10.2838 106.148 10.1569 106.22 10.01L108 6.20002L109.88 10.02C109.952 10.1669 110.059 10.2938 110.191 10.3897C110.324 10.4856 110.478 10.5475 110.64 10.57L114.85 11.18L111.85 14.17Z" fill="#1E8449"/>
<path d="M105.75 9.5L99.75 11L103.5 14.75L102.75 20.75L108 18.5L113.25 20.75L112.5 14.75L116.25 11L111 9.5L108 5L105.75 9.5Z" fill="#1E8449"/>
</svg>
