<svg width="73" height="72" viewBox="0 0 73 72" fill="none" xmlns="http://www.w3.org/2000/svg">
<g clip-path="url(#clip0_1_497)">
<path d="M36.6667 0C16.843 0 0.666748 16.1788 0.666748 36C0.666748 55.8239 16.8455 72 36.6667 72C56.4905 72 72.6667 55.8212 72.6667 36C72.6667 16.1761 56.488 0 36.6667 0ZM36.6667 67.7812C19.1425 67.7812 4.8855 53.5243 4.8855 36C4.8855 18.4757 19.1425 4.21875 36.6667 4.21875C54.191 4.21875 68.448 18.4757 68.448 36C68.448 53.5243 54.191 67.7812 36.6667 67.7812Z" fill="#1E8449"/>
<path d="M36.6667 8.57812C21.5463 8.57812 9.24487 20.8796 9.24487 36C9.24487 51.1204 21.5463 63.4219 36.6667 63.4219C51.7872 63.4219 64.0886 51.1204 64.0886 36C64.0886 20.8796 51.7872 8.57812 36.6667 8.57812ZM42.9949 13.6741C46.7415 14.7375 50.1043 16.7219 52.8243 19.3645L46.1589 23.2125C44.7506 24.0254 42.9949 23.0096 42.9949 21.3858V13.6741ZM30.3386 13.6741V21.3858C30.3386 23.0086 28.5838 24.0259 27.1746 23.2125L20.5092 19.3643C23.2292 16.7219 26.592 14.7375 30.3386 13.6741ZM13.4636 36C13.4636 34.0403 13.7089 32.1368 14.1686 30.3178L20.8464 34.1733C22.253 34.9854 22.2542 37.014 20.8464 37.8269L14.1686 41.6824C13.7089 39.8632 13.4636 37.9599 13.4636 36ZM30.3386 58.3259C26.592 57.2625 23.2292 55.2781 20.5092 52.6355L27.1746 48.7873C28.5814 47.9753 30.3386 48.9887 30.3386 50.614V58.3259ZM42.9949 58.3259V50.6142C42.9949 48.9887 44.752 47.9752 46.1589 48.7875L52.8243 52.6357C50.1043 55.2781 46.7415 57.2625 42.9949 58.3259ZM55.616 49.3761L48.2683 45.1339C44.05 42.6984 38.7761 45.7381 38.7761 50.6142V59.1062C38.0812 59.1692 37.3779 59.2031 36.6667 59.2031C35.9556 59.2031 35.2523 59.1692 34.5574 59.1062V50.6142C34.5574 45.7435 29.2882 42.6957 25.0652 45.1339L17.7175 49.3761C16.9071 48.2313 16.1985 47.0098 15.6031 45.7253L22.9558 41.4803C27.1741 39.045 27.1786 32.9576 22.9558 30.5197L15.6031 26.2747C16.1985 24.9903 16.907 23.7687 17.7175 22.6239L25.0652 26.8661C29.2837 29.3016 34.5574 26.2617 34.5574 21.3858V12.8938C35.2523 12.8308 35.9556 12.7969 36.6667 12.7969C37.3779 12.7969 38.0812 12.8308 38.7761 12.8938V21.3858C38.7761 26.2569 44.0456 29.3041 48.2683 26.8661L55.616 22.6239C56.4264 23.7687 57.135 24.9902 57.7304 26.2747L50.3777 30.5197C46.1592 32.9552 46.155 39.0423 50.3777 41.4803L57.7304 45.7253C57.135 47.0097 56.4265 48.2313 55.616 49.3761ZM52.4871 37.8269C51.0808 37.0149 51.0791 34.9862 52.4871 34.1733L59.1649 30.3178C59.6246 32.1368 59.8699 34.0401 59.8699 36C59.8699 37.9599 59.6246 39.8633 59.1649 41.6822L52.4871 37.8269Z" fill="#1E8449"/>
<path d="M36.6667 29.6719C33.1774 29.6719 30.3386 32.5107 30.3386 36C30.3386 39.4893 33.1774 42.3281 36.6667 42.3281C40.1561 42.3281 42.9949 39.4893 42.9949 36C42.9949 32.5107 40.1561 29.6719 36.6667 29.6719ZM36.6667 38.1094C35.5036 38.1094 34.5574 37.1631 34.5574 36C34.5574 34.8369 35.5036 33.8906 36.6667 33.8906C37.8299 33.8906 38.7761 34.8369 38.7761 36C38.7761 37.1631 37.8299 38.1094 36.6667 38.1094Z" fill="#1E8449"/>
</g>
<defs>
<clipPath id="clip0_1_497">
<rect width="72" height="72" fill="white" transform="translate(0.666748)"/>
</clipPath>
</defs>
</svg>
