<svg width="80" height="80" viewBox="0 0 80 80" fill="none" xmlns="http://www.w3.org/2000/svg">
<rect x="0.5" y="0.5" width="79" height="79" stroke="#BABABA"/>
<path d="M50.88 30.1467C49.4644 28.7307 47.5876 27.8698 45.5909 27.7205C43.5943 27.5713 41.6103 28.1436 40 29.3334C38.3035 28.0716 36.1919 27.4994 34.0905 27.7321C31.9891 27.9648 30.0539 28.9851 28.6746 30.5875C27.2953 32.1899 26.5744 34.2554 26.657 36.3681C26.7397 38.4807 27.6197 40.4836 29.12 41.9734L39.0533 51.9067C39.1772 52.0317 39.3247 52.1309 39.4872 52.1986C39.6497 52.2663 39.8239 52.3011 40 52.3011C40.176 52.3011 40.3503 52.2663 40.5127 52.1986C40.6752 52.1309 40.8227 52.0317 40.9466 51.9067L50.88 41.9734C51.6568 41.197 52.2731 40.2752 52.6936 39.2605C53.114 38.2459 53.3305 37.1583 53.3305 36.06C53.3305 34.9617 53.114 33.8742 52.6936 32.8595C52.2731 31.8449 51.6568 30.9231 50.88 30.1467ZM49 40.0934L40 49.08L31 40.0934C30.2069 39.297 29.6666 38.2841 29.4469 37.1818C29.2273 36.0795 29.338 34.9369 29.7652 33.8974C30.1925 32.8578 30.9172 31.9675 31.8484 31.3382C32.7797 30.7089 33.876 30.3686 35 30.36C36.5014 30.3637 37.9401 30.9632 39 32.0267C39.1239 32.1517 39.2714 32.2509 39.4339 32.3186C39.5963 32.3863 39.7706 32.4211 39.9466 32.4211C40.1226 32.4211 40.2969 32.3863 40.4594 32.3186C40.6219 32.2509 40.7693 32.1517 40.8933 32.0267C41.9844 31.0812 43.394 30.5856 44.8367 30.6401C46.2794 30.6946 47.6476 31.2952 48.6642 32.3203C49.6809 33.3454 50.2701 34.7185 50.3126 36.1616C50.3551 37.6048 49.8478 39.0102 48.8933 40.0934H49Z" fill="#1E8449"/>
</svg>
