<svg width="118" height="118" viewBox="0 0 118 118" fill="none" xmlns="http://www.w3.org/2000/svg">
<circle cx="59" cy="59" r="57" fill="white" stroke="#229521" stroke-width="4"/>
<path d="M62.5751 66.5001H40.0001C35.4501 66.5001 32.5501 61.6252 34.7501 57.6252L40.5751 47.0251L46.0251 37.1001C48.3001 32.9751 54.2501 32.9751 56.5251 37.1001L62.0001 47.0251L64.6251 51.8001L67.8251 57.6252C70.0251 61.6252 67.1251 66.5001 62.5751 66.5001Z" fill="#229521"/>
<path opacity="0.4" d="M84 67.75C84 76.725 76.725 84 67.75 84C58.775 84 51.5 76.725 51.5 67.75C51.5 67.325 51.525 66.925 51.55 66.5H62.575C67.125 66.5 70.025 61.625 67.825 57.625L64.625 51.8C65.625 51.6 66.675 51.5 67.75 51.5C76.725 51.5 84 58.775 84 67.75Z" fill="#229521"/>
</svg>
