<svg width="73" height="72" viewBox="0 0 73 72" fill="none" xmlns="http://www.w3.org/2000/svg">
<g clip-path="url(#clip0_1_539)">
<path d="M70.2238 42.3281V29.6719H65.3264C64.5651 26.1685 63.187 22.8954 61.3086 19.974L64.7721 16.5104L55.8228 7.56098L52.3592 11.0244C49.4377 9.14597 46.1646 7.76784 42.6613 7.00678V2.10938H30.005V7.00678C26.5016 7.76798 23.2286 9.14611 20.3071 11.0246L16.8435 7.56113L7.89411 16.5105L11.3577 19.9741C9.4791 22.8954 8.10097 26.1685 7.33991 29.6719H2.4425V42.3281H7.33991C8.10111 45.8315 9.47924 49.1046 11.3577 52.026L7.89426 55.4895L16.8436 64.4389L20.3072 60.9753C23.2287 62.8539 26.5018 64.232 30.0051 64.9931V69.8906H42.6614V64.9932C46.1648 64.232 49.4378 62.8539 52.3593 60.9754L55.8229 64.439L64.7723 55.4896L61.3088 52.0262C63.1874 49.1047 64.5656 45.8317 65.3266 42.3283H70.2238V42.3281Z" stroke="#1E8449" stroke-width="4.21875" stroke-miterlimit="10"/>
<path d="M36.3331 57.2344C48.0606 57.2344 57.5675 47.7274 57.5675 36C57.5675 24.2726 48.0606 14.7656 36.3331 14.7656C24.6057 14.7656 15.0988 24.2726 15.0988 36C15.0988 47.7274 24.6057 57.2344 36.3331 57.2344Z" stroke="#1E8449" stroke-width="4.21875" stroke-miterlimit="10"/>
<path d="M42.6613 56.2753V47.1247C46.5248 44.9223 49.13 40.7655 49.13 36C49.13 30.9505 46.2046 26.5853 41.9567 24.5037H40.5519V33.8907L36.3331 37.0547L32.1144 33.8907V24.5037H30.7095C26.4617 26.5853 23.5363 30.9505 23.5363 36C23.5363 40.7655 26.1415 44.9223 30.005 47.1247V56.2752" stroke="#1E8449" stroke-width="4.21875" stroke-miterlimit="10"/>
</g>
<defs>
<clipPath id="clip0_1_539">
<rect width="72" height="72" fill="white" transform="translate(0.33313)"/>
</clipPath>
</defs>
</svg>
