<svg width="32" height="33" viewBox="0 0 32 33" fill="none" xmlns="http://www.w3.org/2000/svg">
<path d="M3.33321 12.3133L15.3332 19.2467C15.5359 19.3637 15.7658 19.4253 15.9999 19.4253C16.2339 19.4253 16.4639 19.3637 16.6665 19.2467L28.6665 12.3133C28.8681 12.197 29.0356 12.0299 29.1526 11.8288C29.2695 11.6276 29.3318 11.3993 29.3332 11.1667C29.3341 10.9317 29.273 10.7007 29.1559 10.497C29.0388 10.2933 28.87 10.1241 28.6665 10.0067L16.6665 3.08665C16.4639 2.96963 16.2339 2.90802 15.9999 2.90802C15.7658 2.90802 15.5359 2.96963 15.3332 3.08665L3.33321 10.0067C3.12974 10.1241 2.96092 10.2933 2.84385 10.497C2.72678 10.7007 2.66561 10.9317 2.66654 11.1667C2.66795 11.3993 2.73022 11.6276 2.84718 11.8288C2.96413 12.0299 3.13169 12.197 3.33321 12.3133ZM15.9999 5.83332L25.3332 11.1667L15.9999 16.5L6.66654 11.1667L15.9999 5.83332ZM27.3332 15.3933L15.9999 21.8333L4.66654 15.34C4.51437 15.2518 4.34625 15.1946 4.17188 15.1717C3.99751 15.1488 3.82033 15.1606 3.65054 15.2065C3.48075 15.2523 3.32172 15.3313 3.18259 15.4389C3.04346 15.5465 2.92698 15.6805 2.83988 15.8333C2.66605 16.1395 2.62036 16.502 2.71278 16.8417C2.8052 17.1814 3.02824 17.4708 3.33321 17.6467L15.3332 24.58C15.5359 24.697 15.7658 24.7586 15.9999 24.7586C16.2339 24.7586 16.4639 24.697 16.6665 24.58L28.6665 17.6467C28.9715 17.4708 29.1946 17.1814 29.287 16.8417C29.3794 16.502 29.3337 16.1395 29.1599 15.8333C29.0728 15.6805 28.9563 15.5465 28.8172 15.4389C28.678 15.3313 28.519 15.2523 28.3492 15.2065C28.1794 15.1606 28.0022 15.1488 27.8279 15.1717C27.6535 15.1946 27.4854 15.2518 27.3332 15.34V15.3933ZM27.3332 20.7267L15.9999 27.1667L4.66654 20.6733C4.51437 20.5852 4.34625 20.528 4.17188 20.5051C3.99751 20.4822 3.82033 20.494 3.65054 20.5398C3.48075 20.5857 3.32172 20.6647 3.18259 20.7723C3.04346 20.8798 2.92698 21.0139 2.83988 21.1667C2.66605 21.4728 2.62036 21.8353 2.71278 22.175C2.8052 22.5147 3.02824 22.8041 3.33321 22.98L15.3332 29.9133C15.5359 30.0303 15.7658 30.092 15.9999 30.092C16.2339 30.092 16.4639 30.0303 16.6665 29.9133L28.6665 22.98C28.9715 22.8041 29.1946 22.5147 29.287 22.175C29.3794 21.8353 29.3337 21.4728 29.1599 21.1667C29.0728 21.0139 28.9563 20.8798 28.8172 20.7723C28.678 20.6647 28.519 20.5857 28.3492 20.5398C28.1794 20.494 28.0022 20.4822 27.8279 20.5051C27.6535 20.528 27.4854 20.5852 27.3332 20.6733V20.7267Z" fill="#1E8449"/>
</svg>
