<svg width="80" height="80" viewBox="0 0 80 80" fill="none" xmlns="http://www.w3.org/2000/svg">
<rect x="0.5" y="0.5" width="79" height="79" stroke="#BABABA"/>
<path d="M52.4001 37.44C52.0254 36.9902 51.5566 36.6281 51.0267 36.3793C50.4968 36.1305 49.9188 36.001 49.3334 36H43.2534L44.0001 34.0934C44.3107 33.2585 44.4141 32.3608 44.3015 31.4772C44.1889 30.5937 43.8637 29.7506 43.3537 29.0203C42.8437 28.2901 42.1641 27.6944 41.3733 27.2845C40.5826 26.8745 39.7041 26.6625 38.8134 26.6667C38.5569 26.6672 38.306 26.7417 38.0908 26.8812C37.8756 27.0208 37.7052 27.2194 37.6001 27.4534L33.8001 36H30.6667C29.6059 36 28.5885 36.4214 27.8383 37.1716C27.0882 37.9217 26.6667 38.9392 26.6667 40V49.3334C26.6667 50.3942 27.0882 51.4116 27.8383 52.1618C28.5885 52.9119 29.6059 53.3334 30.6667 53.3334H47.6401C48.5758 53.333 49.4819 53.0047 50.2005 52.4054C50.9192 51.8061 51.405 50.9738 51.5734 50.0534L53.2667 40.72C53.3715 40.1432 53.3481 39.5504 53.1984 38.9836C53.0486 38.4168 52.7761 37.8898 52.4001 37.44ZM33.3334 50.6667H30.6667C30.3131 50.6667 29.974 50.5262 29.7239 50.2762C29.4739 50.0261 29.3334 49.687 29.3334 49.3334V40C29.3334 39.6464 29.4739 39.3073 29.7239 39.0572C29.974 38.8072 30.3131 38.6667 30.6667 38.6667H33.3334V50.6667ZM50.6667 40.24L48.9734 49.5734C48.9166 49.884 48.7514 50.1643 48.5073 50.3646C48.2631 50.5648 47.9558 50.6718 47.6401 50.6667H36.0001V37.6134L39.6267 29.4534C40.0001 29.5622 40.3468 29.7472 40.645 29.9968C40.9432 30.2464 41.1864 30.555 41.3593 30.9033C41.5322 31.2516 41.631 31.632 41.6495 32.0204C41.668 32.4088 41.6058 32.7969 41.4667 33.16L40.7601 35.0667C40.6095 35.4697 40.5587 35.9031 40.6119 36.3301C40.6652 36.757 40.8209 37.1647 41.0659 37.5183C41.3108 37.872 41.6377 38.1612 42.0186 38.3611C42.3995 38.5611 42.8232 38.6659 43.2534 38.6667H49.3334C49.5293 38.6664 49.7228 38.7092 49.9003 38.7922C50.0777 38.8751 50.2347 38.9962 50.3601 39.1467C50.4885 39.2951 50.5826 39.4701 50.6356 39.6591C50.6886 39.8481 50.6993 40.0464 50.6667 40.24Z" fill="#1E8449"/>
</svg>
