<svg width="32" height="32" viewBox="0 0 32 32" fill="none" xmlns="http://www.w3.org/2000/svg">
<path d="M21.3334 13.3333H18.6667V10.6667C18.6667 10.313 18.5262 9.9739 18.2762 9.72386C18.0262 9.47381 17.687 9.33333 17.3334 9.33333H10.6667C10.3131 9.33333 9.97396 9.47381 9.72392 9.72386C9.47387 9.9739 9.33339 10.313 9.33339 10.6667V17.3333C9.33339 17.687 9.47387 18.0261 9.72392 18.2761C9.97396 18.5262 10.3131 18.6667 10.6667 18.6667H13.3334V21.3333C13.3334 21.687 13.4739 22.0261 13.7239 22.2761C13.974 22.5262 14.3131 22.6667 14.6667 22.6667H21.3334C21.687 22.6667 22.0262 22.5262 22.2762 22.2761C22.5263 22.0261 22.6667 21.687 22.6667 21.3333V14.6667C22.6667 14.313 22.5263 13.9739 22.2762 13.7239C22.0262 13.4738 21.687 13.3333 21.3334 13.3333ZM13.3334 14.6667V16H12.0001V12H16.0001V13.3333H14.6667C14.3131 13.3333 13.974 13.4738 13.7239 13.7239C13.4739 13.9739 13.3334 14.313 13.3334 14.6667ZM20.0001 20H16.0001V16H20.0001V20ZM28.0001 24.3733V7.62666C28.3607 7.42609 28.6698 7.14456 28.9031 6.80424C29.1365 6.46392 29.2877 6.07409 29.3448 5.66543C29.4019 5.25678 29.3634 4.84043 29.2324 4.44917C29.1013 4.05791 28.8812 3.7024 28.5894 3.41063C28.2977 3.11885 27.9421 2.89877 27.5509 2.76769C27.1596 2.63662 26.7433 2.59813 26.3346 2.65526C25.926 2.71239 25.5361 2.86357 25.1958 3.09691C24.8555 3.33026 24.574 3.63939 24.3734 4H7.62672C7.42615 3.63939 7.14462 3.33026 6.8043 3.09691C6.46398 2.86357 6.07416 2.71239 5.6655 2.65526C5.25684 2.59813 4.84049 2.63662 4.44923 2.76769C4.05797 2.89877 3.70246 3.11885 3.41069 3.41063C3.11891 3.7024 2.89883 4.05791 2.76775 4.44917C2.63668 4.84043 2.59819 5.25678 2.65532 5.66543C2.71245 6.07409 2.86363 6.46392 3.09697 6.80424C3.33032 7.14456 3.63945 7.42609 4.00006 7.62666V24.3733C3.63945 24.5739 3.33032 24.8554 3.09697 25.1958C2.86363 25.5361 2.71245 25.9259 2.65532 26.3346C2.59819 26.7432 2.63668 27.1596 2.76775 27.5508C2.89883 27.9421 3.11891 28.2976 3.41069 28.5894C3.70246 28.8811 4.05797 29.1012 4.44923 29.2323C4.84049 29.3634 5.25684 29.4019 5.6655 29.3447C6.07416 29.2876 6.46398 29.1364 6.8043 28.9031C7.14462 28.6697 7.42615 28.3606 7.62672 28H24.3734C24.574 28.3606 24.8555 28.6697 25.1958 28.9031C25.5361 29.1364 25.926 29.2876 26.3346 29.3447C26.7433 29.4019 27.1596 29.3634 27.5509 29.2323C27.9421 29.1012 28.2977 28.8811 28.5894 28.5894C28.8812 28.2976 29.1013 27.9421 29.2324 27.5508C29.3634 27.1596 29.4019 26.7432 29.3448 26.3346C29.2877 25.9259 29.1365 25.5361 28.9031 25.1958C28.6698 24.8554 28.3607 24.5739 28.0001 24.3733ZM25.3334 24.3733C24.9324 24.6006 24.6006 24.9324 24.3734 25.3333H7.62672C7.39949 24.9324 7.0677 24.6006 6.66673 24.3733V7.62666C7.0677 7.39943 7.39949 7.06764 7.62672 6.66666H24.3734C24.6006 7.06764 24.9324 7.39943 25.3334 7.62666V24.3733Z" fill="#1E8449"/>
</svg>
