<svg width="82" height="96" viewBox="0 0 82 96" fill="none" xmlns="http://www.w3.org/2000/svg">
<g opacity="0.6">
<path d="M2.61899 25.2367C-7.41332 46.9194 17.3169 79.5784 30.936 93.1975C34.8207 97.0822 35.7899 93.1983 35.7889 90.7707C36.1934 58.4084 43.8795 53.5541 49.5429 47.8906C54.9172 42.5163 56.4199 31.7358 53.5882 23.214C49.2044 10.0214 15.1594 -1.86675 2.61899 25.2367Z" fill="#66CBA7"/>
<path d="M79.6681 16.9319C89.7004 38.6146 64.9702 71.2736 51.3511 84.8927C47.4664 88.7774 46.4972 84.8935 46.4982 82.4659C46.0937 50.1036 38.4076 45.2492 32.7442 39.5858C27.3699 34.2115 25.8673 23.431 28.699 14.9092C33.0827 1.7166 67.1277 -10.1716 79.6681 16.9319Z" fill="#15BAB3"/>
<path d="M43.1668 55.2003C40.6655 47.1027 36.88 44.1413 33.7215 41.0967C33.2841 40.675 32.854 40.2604 32.4349 39.8414C27.0606 34.4671 25.5579 23.6866 28.3896 15.1648C29.0417 13.2025 30.4484 11.2691 32.2445 9.48853C42.5148 10.9569 51.5546 17.061 53.6854 23.4734C56.5171 31.9952 55.0144 42.7757 49.6401 48.15C49.221 48.569 48.7909 48.9837 48.3535 49.4053C46.5789 51.1159 44.9301 52.4919 43.1668 55.2003Z" fill="#00A86D"/>
</g>
</svg>
