<svg width="118" height="118" viewBox="0 0 118 118" fill="none" xmlns="http://www.w3.org/2000/svg">
<circle cx="59" cy="59" r="57" fill="#FAFBFC" stroke="#229521" stroke-width="4"/>
<path opacity="0.4" d="M74.875 78.2C73.5 81.725 70.15 84 66.375 84H51.625C47.825 84 44.5 81.725 43.125 78.2C41.75 74.65 42.6999 70.725 45.4999 68.175L55.625 59H62.4L72.5 68.175C75.3 70.725 76.225 74.65 74.875 78.2Z" fill="#229521"/>
<path d="M63.55 74.3499H54.45C53.5 74.3499 52.75 73.5749 52.75 72.6499C52.75 71.6999 53.525 70.95 54.45 70.95H63.55C64.5 70.95 65.25 71.7249 65.25 72.6499C65.25 73.5749 64.475 74.3499 63.55 74.3499Z" fill="#229521"/>
<path d="M74.8749 39.8C73.4999 36.275 70.1499 34 66.3749 34H51.6249C47.8499 34 44.4999 36.275 43.1249 39.8C41.7749 43.35 42.6999 47.275 45.5249 49.825L55.6249 59H62.3999L72.4999 49.825C75.2999 47.275 76.2249 43.35 74.8749 39.8ZM63.5499 47.075H54.4499C53.4999 47.075 52.7499 46.3 52.7499 45.375C52.7499 44.45 53.5249 43.675 54.4499 43.675H63.5499C64.4999 43.675 65.2499 44.45 65.2499 45.375C65.2499 46.3 64.4749 47.075 63.5499 47.075Z" fill="#229521"/>
</svg>
